<?xml version="1.0" encoding="UTF-8" standalone="no"?>
<!DOCTYPE svg PUBLIC "-//W3C//DTD SVG 1.1//EN" "http://www.w3.org/Graphics/SVG/1.1/DTD/svg11.dtd">
<svg width="100%" height="100%" viewBox="0 0 652 652" version="1.1" xmlns="http://www.w3.org/2000/svg" xmlns:xlink="http://www.w3.org/1999/xlink" xml:space="preserve" xmlns:serif="http://www.serif.com/" style="fill-rule:evenodd;clip-rule:evenodd;stroke-linejoin:round;stroke-miterlimit:2;">
    <g transform="matrix(1,0,0,1,-4647.36,-18704.4)">
        <g transform="matrix(1.91661,0,0,1,-9989.74,-0.324382)">
            <g transform="matrix(1.12257e-16,-3.51371,1.8333,2.15153e-16,-21091.9,81106.8)">
                <path d="M17759.6,15708.6L17759.6,15818.2C17759.6,15839.1 17742.6,15856.1 17721.7,15856.1L17612,15856.1C17591.1,15856.1 17574.1,15839.1 17574.1,15818.2L17574.1,15708.6C17574.1,15687.6 17591.1,15670.6 17612,15670.6L17721.7,15670.6C17742.6,15670.6 17759.6,15687.6 17759.6,15708.6Z" style="fill:rgb(42,26,18);"/>
            </g>
        </g>
        <g transform="matrix(1.91661,0,0,1,-9989.74,-0.324382)">
            <g transform="matrix(1.12257e-16,-3.51371,1.8333,2.15153e-16,-21091.9,81106.8)">
                <path d="M17746.8,15713C17746.8,15696.7 17733.6,15683.4 17717.3,15683.4L17615.7,15683.4C17599.8,15683.4 17586.9,15696.3 17586.9,15712.2L17586.9,15742C17586.9,15750.3 17593.6,15757 17601.9,15757L17731.8,15757C17740.1,15757 17746.8,15750.3 17746.8,15742L17746.8,15713Z" style="fill:rgb(226,148,60);"/>
            </g>
        </g>
        <g transform="matrix(1.91661,0,0,1,-9989.74,-0.324382)">
            <g transform="matrix(1.12257e-16,-3.51371,1.8333,2.15153e-16,-21091.9,81106.8)">
                <path d="M17686.8,15831.3C17686.8,15838 17692.2,15843.3 17698.8,15843.3L17718.4,15843.3C17734.1,15843.3 17746.8,15830.6 17746.8,15814.9L17746.8,15781.6C17746.8,15774.8 17741.3,15769.3 17734.6,15769.3L17697.5,15769.3C17691.6,15769.3 17686.8,15774.1 17686.8,15780L17686.8,15831.3Z" style="fill:rgb(117,163,61);"/>
            </g>
        </g>
        <g transform="matrix(1.91661,0,0,1,-9989.74,-0.324382)">
            <g transform="matrix(1.12257e-16,-3.51371,1.8333,2.15153e-16,-21091.9,81106.8)">
                <path d="M17674.2,15830L17674.2,15782.5C17674.2,15775.2 17668.3,15769.3 17661,15769.3L17602,15769.3C17593.7,15769.3 17586.9,15776.1 17586.9,15784.4L17586.9,15814.4C17586.9,15830.4 17599.9,15843.3 17615.9,15843.3L17660.8,15843.3C17668.2,15843.3 17674.2,15837.3 17674.2,15830Z" style="fill:rgb(223,184,44);"/>
            </g>
        </g>
    </g>
</svg>
