<?xml version="1.0" encoding="UTF-8" standalone="no"?>
<svg width="100%" height="100%" viewBox="0 0 180 180" version="1.1" xmlns="http://www.w3.org/2000/svg" xml:space="preserve" style="fill-rule:evenodd;clip-rule:evenodd;stroke-linejoin:round;stroke-miterlimit:2;">
  <g transform="matrix(1,0,0,1,-7690.59,-18089)">
    <g transform="matrix(1.91661,0,0,1,-9989.74,-0.324382)">
      <g transform="matrix(0.506339,0,0,0.970453,326.35,2881.74)">
        <path d="M17759.6,15711.5L17759.6,15815.3C17759.6,15837.8 17741.3,15856.1 17718.8,15856.1L17614.9,15856.1C17592.4,15856.1 17574.1,15837.8 17574.1,15815.3L17574.1,15711.5C17574.1,15688.9 17592.4,15670.6 17614.9,15670.6L17718.8,15670.6C17741.3,15670.6 17759.6,15688.9 17759.6,15711.5Z" style="fill:rgb(38,40,39);"/>
      </g>
    </g>
    <g transform="matrix(1.91661,0,0,1,-9989.74,-0.324382)">
      <g transform="matrix(0.828272,0,0,2.36157,-4986.5,-14995.8)">
        <g transform="matrix(0.831674,0,0,0.338303,3019.7,8687.56)">
          <path d="M17069.9,15748L17069.9,15941.9C17069.9,15943.9 17068.9,15945.5 17067.7,15945.5C17066.5,15945.5 17065.5,15943.9 17065.5,15941.9L17065.5,15748C17065.5,15746 17066.5,15744.4 17067.7,15744.4C17068.9,15744.4 17069.9,15746 17069.9,15748Z" style="fill:rgb(251,245,233);"/>
        </g>
        <g transform="matrix(5.09254e-17,-0.559061,0.503269,2.07151e-17,9240.19,23589.8)">
          <path d="M17069.9,15748L17069.9,15941.9C17069.9,15943.9 17068.9,15945.5 17067.7,15945.5C17066.5,15945.5 17065.5,15943.9 17065.5,15941.9L17065.5,15748C17065.5,15746 17066.5,15744.4 17067.7,15744.4C17068.9,15744.4 17069.9,15746 17069.9,15748Z" style="fill:rgb(251,245,233);"/>
        </g>
      </g>
    </g>
    <g transform="matrix(1.91661,0,0,1,-9989.74,-0.324382)">
      <g transform="matrix(0.00382576,-1.99159e-34,1.03912e-34,-0.00733249,9236.57,18169.4)">
        <path d="M2392,6510C2303,6491 2240,6432 2215,6346C2201,6299 2200,6132 2203,4914C2206,3666 2208,3528 2223,3460C2281,3201 2390,2998 2564,2825C2795,2595 3112,2459 3493,2429C3642,2417 3807,2427 3949,2456C4431,2554 4823,2925 4946,3399C5041,3767 5005,4169 4848,4485C4671,4840 4381,5060 3977,5147C3859,5173 3539,5172 3420,5147C3281,5117 3158,5073 3034,5010C2944,4963 2914,4952 2904,4961C2892,4970 2890,5090 2890,5652C2890,6388 2892,6361 2835,6436C2791,6493 2743,6508 2580,6514C2500,6517 2416,6515 2392,6510ZM3805,4520C3930,4481 4007,4434 4101,4340C4171,4270 4196,4237 4229,4169C4289,4044 4312,3948 4313,3810C4315,3598 4242,3416 4099,3271C3903,3073 3592,3015 3319,3125C3049,3234 2875,3528 2893,3844C2900,3972 2918,4041 2976,4159C3052,4313 3202,4449 3360,4505C3500,4555 3674,4561 3805,4520Z" style="fill:rgb(251,245,233);fill-rule:nonzero;"/>
      </g>
    </g>
  </g>
</svg>
