<?xml version="1.0" encoding="UTF-8" standalone="no"?>
<!DOCTYPE svg PUBLIC "-//W3C//DTD SVG 1.1//EN" "http://www.w3.org/Graphics/SVG/1.1/DTD/svg11.dtd">
<svg width="100%" height="100%" viewBox="0 0 899 265" version="1.1" xmlns="http://www.w3.org/2000/svg" xmlns:xlink="http://www.w3.org/1999/xlink" xml:space="preserve" xmlns:serif="http://www.serif.com/" style="fill-rule:evenodd;clip-rule:evenodd;stroke-linejoin:round;stroke-miterlimit:2;">
    <g transform="matrix(1,0,0,1,-3213.05,-18390.9)">
        <g transform="matrix(1.91661,0,0,1,-9989.74,-0.324382)">
            <g transform="matrix(0.0337214,0,0,-0.0646307,6814.38,18812.3)">
                <g>
                    <path d="M2392,6510C2303,6491 2240,6432 2215,6346C2201,6299 2200,6132 2203,4914C2206,3666 2208,3528 2223,3460C2281,3201 2390,2998 2564,2825C2795,2595 3112,2459 3493,2429C3642,2417 3807,2427 3949,2456C4431,2554 4823,2925 4946,3399C5041,3767 5005,4169 4848,4485C4671,4840 4381,5060 3977,5147C3859,5173 3539,5172 3420,5147C3281,5117 3158,5073 3034,5010C2944,4963 2914,4952 2904,4961C2892,4970 2890,5090 2890,5652C2890,6388 2892,6361 2835,6436C2791,6493 2743,6508 2580,6514C2500,6517 2416,6515 2392,6510ZM3805,4520C3930,4481 4007,4434 4101,4340C4171,4270 4196,4237 4229,4169C4289,4044 4312,3948 4313,3810C4315,3598 4242,3416 4099,3271C3903,3073 3592,3015 3319,3125C3049,3234 2875,3528 2893,3844C2900,3972 2918,4041 2976,4159C3052,4313 3202,4449 3360,4505C3500,4555 3674,4561 3805,4520Z" style="fill:rgb(226,148,60);fill-rule:nonzero;"/>
                    <path d="M11942,5795C11879,5776 11831,5734 11804,5676C11781,5626 11780,5618 11780,5359C11780,5166 11777,5091 11768,5082C11760,5074 11713,5070 11625,5070C11475,5070 11434,5057 11383,4995C11342,4946 11330,4893 11330,4768C11330,4614 11356,4548 11435,4503C11471,4482 11488,4480 11616,4480C11711,4480 11760,4476 11768,4468C11777,4459 11780,4298 11780,3805C11780,3201 11782,3149 11800,3068C11875,2728 12107,2526 12474,2480C12584,2466 12862,2472 12921,2489C12981,2507 13023,2542 13055,2600C13055,2600 13055,2600.01 13055,2600.02C13084,2653 13085,2659.01 13085,2785C13085,2926.96 13075,2969.98 13032,3021.96C13032,3021.99 13032,3022.03 13031.9,3022.06C12990,3071.01 12955.9,3080 12806,3080C12644,3080 12583,3097 12526,3160C12460,3233 12460,3237 12460,3881C12460,4339 12463,4460 12473,4468C12481,4475 12573,4480 12722,4482C12722,4482 12872.4,4483.91 12933.1,4484.68C12949.2,4484.89 12964.9,4490.46 12977.5,4500.52C12987.2,4508.25 12997,4515.97 12997,4516C12997.1,4516.07 12997.2,4516.14 12997.3,4516.21C13018.2,4533.28 13046.1,4567.1 13060,4591C13060.1,4591.14 13060.2,4591.28 13060.2,4591.43C13083,4632.09 13085,4644.44 13085,4770C13085,4895.64 13083,4908.93 13059.2,4954.61C13059.1,4954.9 13058.9,4955.2 13058.7,4955.5C13043.7,4985.36 13016.9,5017.1 12991,5035C12991,5035 12977.9,5044.15 12966.1,5052.35C12954.3,5060.6 12940.3,5065.16 12925.9,5065.46C12866.3,5066.69 12707,5070 12707,5070L12465,5075L12460,5350C12455,5601 12453,5629 12434,5670C12407,5729 12353,5776 12288,5795C12222,5814 12004,5815 11942,5795Z" style="fill:rgb(117,163,61);fill-rule:nonzero;"/>
                    <path d="M6605,5133C6297,5093 6032,4965 5819,4751C5556,4489 5418,4153 5418,3780C5418,3407 5545,3094 5800,2840C5961,2678 6129,2575 6333,2512C6497,2461 6615,2447 6845,2453C7026,2457 7056,2460 7162,2488C7417,2554 7645,2688 7813,2870C7877,2938 7895,2986 7880,3041C7867,3086 7850,3101 7712,3189C7573,3278 7527,3300 7475,3300C7427,3300 7398,3283 7302,3197C7173,3082 7030,3024 6845,3013C6515,2994 6227,3178 6130,3468C6114,3517 6112,3535 6121,3546C6130,3557 6278,3560 7019,3562L7905,3565L7948,3589C7979,3608 7997,3628 8017,3668C8042,3720 8043,3725 8037,3863C8028,4094 7983,4275 7889,4465C7680,4887 7243,5145 6749,5139C6686,5138 6622,5135 6605,5133ZM6967,4545C7154,4486 7302,4342 7360,4161C7372,4122 7380,4084 7376,4075C7371,4062 7298,4060 6758,4060C6409,4060 6139,4064 6131,4069C6112,4081 6128,4138 6178,4235C6234,4343 6341,4445 6460,4503C6512,4529 6587,4556 6625,4565C6724,4586 6863,4578 6967,4545Z" style="fill:rgb(31,67,69);fill-rule:nonzero;"/>
                    <path d="M9793,5125C9593,5089 9417,5000 9263,4858C9229,4826 9197,4800 9192,4800C9187,4800 9180,4826 9176,4857C9168,4928 9128,5002 9081,5034C9027,5072 8954,5083 8806,5078C8659,5073 8616,5058 8565,4998C8507,4930 8510,4994 8510,3778C8510,2510 8504,2611 8590,2537C8648,2488 8703,2477 8870,2482C9015,2486 9045,2494 9103,2549C9168,2609 9164,2569 9171,3310C9176,3963 9177,3988 9198,4063C9262,4295 9421,4455 9636,4506C9895,4566 10140,4465 10239,4257C10305,4117 10303,4147 10309,3354C10309,3354 10313.7,2784.77 10314.8,2658.58C10314.9,2642.53 10319.7,2626.87 10328.5,2613.47C10335.3,2603.23 10342,2593 10342,2593C10405,2497 10468,2476 10667,2482C10842,2487 10892,2509 10943,2605C10965,2645 10965,2646 10965,3425C10965,4200 10965,4206 10942,4319C10872,4666 10686,4917 10406,5045C10224,5128 9984,5160 9793,5125Z" style="fill:rgb(62,136,190);fill-rule:nonzero;"/>
                    <path d="M14585,5134C14099,5062 13725,4795 13525,4374C13430,4175 13396,4001 13403,3750C13410,3515 13443,3373 13535,3188C13721,2813 14043,2565 14460,2474C14590,2445 14908,2448 15047,2478C15315,2536 15530,2652 15718,2839C15906,3025 16023,3246 16082,3525C16109,3656 16112,3900 16086,4040C15989,4578 15583,4995 15045,5110C14948,5131 14664,5145 14585,5134ZM14935,4506C14968,4497 15033,4471 15080,4448C15243,4369 15379,4196 15432,4004C15463,3888 15463,3695 15432,3586C15393,3451 15338,3356 15240,3259C15170,3189 15137,3164 15069,3131C14946,3072 14871,3057 14720,3063C14618,3067 14581,3073 14518,3095C14145,3225 13956,3641 14084,4045C14119,4154 14172,4242 14255,4326C14395,4467 14569,4534 14775,4525C14830,4523 14902,4514 14935,4506Z" style="fill:rgb(126,94,174);fill-rule:nonzero;"/>
                </g>
            </g>
        </g>
    </g>
</svg>
